<svg width="128" height="128" viewBox="0 0 128 128" fill="none" xmlns="http://www.w3.org/2000/svg">
<path d="M78.7693 88.6154H88.6155L64.0001 29.5385H54.154L29.5386 88.6154H39.3847L45.4893 73.8461H72.714L78.7693 88.6154ZM49.5755 64L58.5355 42.24H59.7663L68.9232 64H49.5755Z" fill="black"/>
<path d="M39.3846 118.154H9.84615C7.23479 118.154 4.73038 117.116 2.88387 115.27C1.03736 113.423 0 110.919 0 108.308V9.84615C0 7.23479 1.03736 4.73038 2.88387 2.88387C4.73038 1.03736 7.23479 0 9.84615 0H108.308C110.919 0 113.423 1.03736 115.27 2.88387C117.116 4.73038 118.154 7.23479 118.154 9.84615V64H108.308V9.84615H9.84615V108.308H39.3846V118.154ZM93.5385 114.117L80.7877 101.366L73.8462 108.308L93.5385 128L128 93.5385L121.058 86.5969L93.5385 114.117Z" fill="black"/>
</svg>
