<svg width="138" height="138" viewBox="0 0 138 138" fill="none" xmlns="http://www.w3.org/2000/svg">
<path d="M33.4443 52.4098C33.4443 47.3799 35.4425 42.556 38.9992 38.9993C42.5558 35.4426 47.3797 33.4445 52.4097 33.4445H114.035C116.525 33.4445 118.991 33.935 121.292 34.8881C123.593 35.8412 125.684 37.2382 127.445 38.9993C129.206 40.7604 130.603 42.8511 131.556 45.1521C132.509 47.4531 133 49.9192 133 52.4098V114.035C133 116.525 132.509 118.991 131.556 121.292C130.603 123.593 129.206 125.684 127.445 127.445C125.684 129.206 123.593 130.603 121.292 131.556C118.991 132.509 116.525 133 114.035 133H52.4097C49.9191 133 47.4529 132.509 45.152 131.556C42.851 130.603 40.7602 129.206 38.9992 127.445C37.2381 125.684 35.8411 123.593 34.888 121.292C33.9349 118.991 33.4443 116.525 33.4443 114.035V52.4098Z" stroke="black" stroke-width="10" stroke-linecap="round" stroke-linejoin="round"/>
<path d="M12.1964 102.685C10.0133 101.445 8.19751 99.6487 6.93351 97.4792C5.66952 95.3097 5.00242 92.8442 5 90.3333V19.2222C5 11.4 11.4 5 19.2222 5H90.3333C95.6667 5 98.568 7.73778 101 12.1111" stroke="black" stroke-width="10" stroke-linecap="round" stroke-linejoin="round"/>
</svg>
