<svg width="128" height="162" viewBox="0 0 128 162" fill="none" xmlns="http://www.w3.org/2000/svg">
<path d="M94.9677 88.7742C94.9677 87.1316 94.3152 85.5563 93.1537 84.3947C91.9921 83.2332 90.4168 82.5807 88.7742 82.5807H39.2258C37.5831 82.5807 36.0078 83.2332 34.8463 84.3947C33.6848 85.5563 33.0322 87.1316 33.0322 88.7742C33.0322 90.4169 33.6848 91.9922 34.8463 93.1537C36.0078 94.3152 37.5831 94.9678 39.2258 94.9678H88.7742C90.4168 94.9678 91.9921 94.3152 93.1537 93.1537C94.3152 91.9922 94.9677 90.4169 94.9677 88.7742ZM94.9677 121.806C94.9677 120.164 94.3152 118.589 93.1537 117.427C91.9921 116.265 90.4168 115.613 88.7742 115.613H39.2258C37.5831 115.613 36.0078 116.265 34.8463 117.427C33.6848 118.589 33.0322 120.164 33.0322 121.806C33.0322 123.449 33.6848 125.024 34.8463 126.186C36.0078 127.348 37.5831 128 39.2258 128H88.7742C90.4168 128 91.9921 127.348 93.1537 126.186C94.3152 125.024 94.9677 123.449 94.9677 121.806Z" fill="black"/>
<path fill-rule="evenodd" clip-rule="evenodd" d="M22.7097 0C16.6867 0 10.9104 2.39262 6.65151 6.65151C2.39262 10.9104 0 16.6867 0 22.7097V138.323C0 144.346 2.39262 150.122 6.65151 154.381C10.9104 158.64 16.6867 161.032 22.7097 161.032H105.29C111.313 161.032 117.09 158.64 121.348 154.381C125.607 150.122 128 144.346 128 138.323V47.2196C128 44.0733 126.976 41.0178 125.077 38.5074L100.319 5.73935C98.9719 3.95657 97.2298 2.51045 95.2295 1.5146C93.2292 0.518745 91.0252 0.000301366 88.7907 0H22.7097ZM12.3871 22.7097C12.3871 17.0116 17.0116 12.3871 22.7097 12.3871H82.5806V48.6978C82.5806 52.1166 85.3554 54.8914 88.7742 54.8914H115.613V138.323C115.613 144.021 110.988 148.645 105.29 148.645H22.7097C17.0116 148.645 12.3871 144.021 12.3871 138.323V22.7097Z" fill="black"/>
</svg>
